<?xml version="1.0" encoding="UTF-8" standalone="no"?>
<!-- Created with Inkscape (http://www.inkscape.org/) -->

<svg
   xmlns:dc="http://purl.org/dc/elements/1.1/"
   xmlns:cc="http://creativecommons.org/ns#"
   xmlns:rdf="http://www.w3.org/1999/02/22-rdf-syntax-ns#"
   xmlns:svg="http://www.w3.org/2000/svg"
   xmlns="http://www.w3.org/2000/svg"
   xmlns:sodipodi="http://sodipodi.sourceforge.net/DTD/sodipodi-0.dtd"
   xmlns:inkscape="http://www.inkscape.org/namespaces/inkscape"
   width="446.3125"
   height="347.6875"
   id="svg2"
   version="1.1"
   inkscape:version="0.48.4 r9939"
   sodipodi:docname="chevron.svg">
  <defs
     id="defs4" />
  <sodipodi:namedview
     id="base"
     pagecolor="#ffffff"
     bordercolor="#666666"
     borderopacity="1.0"
     inkscape:pageopacity="0.0"
     inkscape:pageshadow="2"
     inkscape:zoom="0.7"
     inkscape:cx="202.34378"
     inkscape:cy="85.677474"
     inkscape:document-units="px"
     inkscape:current-layer="layer1"
     showgrid="false"
     showguides="true"
     inkscape:guide-bbox="true"
     inkscape:window-width="1275"
     inkscape:window-height="1062"
     inkscape:window-x="2563"
     inkscape:window-y="16"
     inkscape:window-maximized="0"
     fit-margin-top="0"
     fit-margin-left="0"
     fit-margin-right="0"
     fit-margin-bottom="0" />
  <metadata
     id="metadata7">
    <rdf:RDF>
      <cc:Work
         rdf:about="">
        <dc:format>image/svg+xml</dc:format>
        <dc:type
           rdf:resource="http://purl.org/dc/dcmitype/StillImage" />
        <dc:title></dc:title>
      </cc:Work>
    </rdf:RDF>
  </metadata>
  <g
     inkscape:label="Layer 1"
     inkscape:groupmode="layer"
     id="layer1"
     transform="translate(-148.28125,-442.125)">
    <path
	vector-effect="non-scaling-stroke"
       style="fill:white;stroke:none"
       d="M 322.125,442.125 202.5625,561.6875 235.40625,594.53125 354.96875,475 322.125,442.125 z m 98.625,0 L 387.90625,475 507.46875,594.53125 540.3125,561.6875 420.75,442.125 z M 371.4375,501.375 256.84375,615.96875 371.4375,730.5625 486.03125,615.96875 371.4375,501.375 z M 181.125,583.125 148.28125,615.96875 181.125,648.8125 213.96875,615.96875 181.125,583.125 z m 380.625,0 -32.84375,32.84375 L 561.75,648.8125 594.59375,615.96875 561.75,583.125 z M 235.40625,637.40625 202.5625,670.25 322.125,789.8125 354.96875,756.9375 235.40625,637.40625 z m 272.0625,0 L 387.90625,756.9375 420.75,789.8125 540.3125,670.25 507.46875,637.40625 z"
       id="path7627"
       inkscape:connector-curvature="0" />
  </g>
</svg>
