<svg xmlns:rdf="http://www.w3.org/1999/02/22-rdf-syntax-ns#" xmlns="http://www.w3.org/2000/svg" version="1.1" xmlns:cc="http://creativecommons.org/ns#" xmlns:dc="http://purl.org/dc/elements/1.1/" viewBox="0 0 446.31 347.69">
 <g transform="translate(-148.28 -442.12)">
  <path fill="#fff" vector-effect="non-scaling-stroke" d="m322.12 442.12-119.56 119.57 32.85 32.84 119.56-119.53-32.85-32.88zm98.625 0l-32.83 32.88 119.56 119.53 32.84-32.84-119.56-119.57zm-49.3 59.26-114.6 114.59 114.6 114.59 114.59-114.59-114.59-114.59zm-190.32 81.74-32.84 32.85 32.84 32.84 32.85-32.84-32.85-32.85zm380.62 0-32.844 32.844l32.85 32.85 32.84-32.84-32.84-32.85zm-326.33 54.29-32.85 32.84 119.56 119.56 32.85-32.87-119.56-119.53zm272.06 0l-119.56 119.53 32.84 32.87 119.56-119.56-32.84-32.84z"/>
 </g>
</svg>
