<?xml version="1.0" encoding="UTF-8" standalone="no"?>
<!-- Created with Inkscape (http://www.inkscape.org/) -->

<svg
   xmlns:dc="http://purl.org/dc/elements/1.1/"
   xmlns:cc="http://creativecommons.org/ns#"
   xmlns:rdf="http://www.w3.org/1999/02/22-rdf-syntax-ns#"
   xmlns:svg="http://www.w3.org/2000/svg"
   xmlns="http://www.w3.org/2000/svg"
   xmlns:sodipodi="http://sodipodi.sourceforge.net/DTD/sodipodi-0.dtd"
   xmlns:inkscape="http://www.inkscape.org/namespaces/inkscape"
   id="svg2"
   version="1.1"
   inkscape:version="0.91 r13725"
   width="1275"
   height="1275"
   viewBox="0 0 1275 1275"
   sodipodi:docname="logo.svg">
  <metadata
     id="metadata8">
    <rdf:RDF>
      <cc:Work
         rdf:about="">
        <dc:format>image/svg+xml</dc:format>
        <dc:type
           rdf:resource="http://purl.org/dc/dcmitype/StillImage" />
        <dc:title></dc:title>
      </cc:Work>
    </rdf:RDF>
  </metadata>
  <defs
     id="defs6" />
  <sodipodi:namedview
     pagecolor="#ffffff"
     bordercolor="#666666"
     borderopacity="1"
     objecttolerance="10"
     gridtolerance="10"
     guidetolerance="10"
     inkscape:pageopacity="0"
     inkscape:pageshadow="2"
     inkscape:window-width="1159"
     inkscape:window-height="1059"
     id="namedview4"
     showgrid="false"
     inkscape:zoom="0.18509804"
     inkscape:cx="-378.17797"
     inkscape:cy="637.5"
     inkscape:window-x="759"
     inkscape:window-y="19"
     inkscape:window-maximized="0"
     inkscape:current-layer="svg2" />
  <g
     id="g4158"
     transform="translate(1307.4153,621.29237)">
    <path
       style="fill:#feda00"
       d="m -1307.4153,16.207629 0,-637.499999 637.50003,0 637.499997,0 0,637.499999 0,637.500001 -637.499997,0 -637.50003,0 0,-637.500001 z"
       id="path4148"
       inkscape:connector-curvature="0" />
    <path
       style="fill:#fed600"
       d="m -1307.4153,16.207629 0,-637.499999 319.46433,0 c 275.20236,0 319.71169,0.24741 321.24999,1.78571 2.6972,2.6972 2.6972,1268.73139 0,1271.42859 -1.5383,1.5383 -46.04763,1.7857 -321.24999,1.7857 l -319.46433,0 0,-637.500001 z m 958.75003,0 0,-637.499999 158.125,0 158.124997,0 0,637.499999 0,637.500001 -158.124997,0 -158.125,0 0,-637.500001 z"
       id="path4146"
       inkscape:connector-curvature="0" />
    <path
       style="fill:#a32929"
       d="m -1307.4153,16.207629 0,-637.499999 320.00003,0 320,0 0,637.499999 0,637.500001 -320,0 -320.00003,0 0,-637.500001 z"
       id="path4144"
       inkscape:connector-curvature="0" />
    <path
       style="fill:#111010"
       d="m -987.41527,16.207629 0,-637.499999 159.6875,0 159.6875,0 0,637.499999 0,637.500001 -159.6875,0 -159.6875,0 0,-637.500001 z"
       id="path4142"
       inkscape:connector-curvature="0" />
  </g>
</svg>
